<?xml version="1.0" encoding="UTF-8" standalone="no"?>
<svg
   version="1.0"
   width="1024.000000pt"
   height="1024.000000pt"
   viewBox="0 0 1024.000000 1024.000000"
   preserveAspectRatio="xMidYMid meet"
   id="svg20"
   sodipodi:docname="sheet-editor-icon.svg"
   inkscape:version="1.4 (86a8ad7, 2024-10-11)"
   xmlns:inkscape="http://www.inkscape.org/namespaces/inkscape"
   xmlns:sodipodi="http://sodipodi.sourceforge.net/DTD/sodipodi-0.dtd"
   xmlns="http://www.w3.org/2000/svg"
   xmlns:svg="http://www.w3.org/2000/svg">
  <defs
     id="defs20" />
  <sodipodi:namedview
     id="namedview20"
     pagecolor="#ffffff"
     bordercolor="#000000"
     borderopacity="0.25"
     inkscape:showpageshadow="2"
     inkscape:pageopacity="0.0"
     inkscape:pagecheckerboard="0"
     inkscape:deskcolor="#d1d1d1"
     inkscape:document-units="pt"
     inkscape:zoom="0.35355339"
     inkscape:cx="875.39819"
     inkscape:cy="790.54538"
     inkscape:window-width="1920"
     inkscape:window-height="991"
     inkscape:window-x="-9"
     inkscape:window-y="-9"
     inkscape:window-maximized="1"
     inkscape:current-layer="g20" />
  <g
     transform="translate(0.000000,1024.000000) scale(0.100000,-0.100000)"
     fill="#000000"
     stroke="none"
     id="g20">
    <path
       id="path1"
       d="M 2426.792 8587.832 C 2406.2783 8587.4746 2390.25 8584.0029 2370 8578.0029 C 2253 8545.0029 2171 8417.998 2130 8207.998 C 2123 8173.998 2113.0059 8150.0049 2106.0059 8150.0049 C 2099.0059 8150.0049 2076.0039 8163.0049 2054.0039 8180.0049 C 2002.0039 8219.0049 1940 8221 1905 8185 C 1874 8155 1874 8144.9932 1905 8107.9932 C 1929 8079.9932 1929.9941 8072.002 1928.9941 7967.002 C 1928.9941 7855.002 1918 7730.0068 1905 7677.0068 C 1899 7654.0068 1904.0029 7643.9941 1938.0029 7608.9941 C 1987.0029 7560.9941 2006.999 7562.0068 2058.999 7617.0068 C 2106.999 7668.0068 2123.0068 7654.9961 2132.0068 7555.9961 C 2140.0068 7469.9961 2162.001 7374.9941 2186.001 7323.9941 C 2206.001 7282.9941 2296.999 7195.998 2343.999 7172.998 C 2373.999 7158.998 2391.0059 7157.9961 2451.0059 7165.9961 C 2490.0059 7170.9961 2523.0059 7173.0029 2526.0059 7168.0029 C 2537.0059 7150.0029 2609.9941 6732.9951 2618.9941 6629.9951 C 2624.9941 6566.9951 2635 6475.0049 2640 6425.0049 C 2645 6376.0049 2650.0049 6303.9961 2650.0049 6265.9961 L 2650.0049 6197.998 L 2677.002 6205 C 2691.002 6208 2746.9941 6230.9951 2798.9941 6254.9951 C 2851.9941 6277.9951 2911.998 6303 2932.998 6310 C 2952.998 6316 2970 6324.999 2970 6328.999 C 2970 6332.999 2952.998 6341.9941 2932.998 6348.9941 C 2874.998 6369.9941 2831.001 6398.9932 2816.001 6427.9932 C 2809.001 6442.9932 2790.9961 6556.0049 2775.9961 6680.0049 C 2732.9961 7053.0049 2729.0039 7082.9941 2714.0039 7143.9941 C 2706.0039 7175.9941 2701.0029 7204.001 2703.0029 7206.001 C 2721.0029 7224.001 3186.9932 7313.9951 3372.9932 7334.9951 C 3529.9932 7352.9951 3712.9932 7380.0049 3717.9932 7385.0049 C 3722.9932 7390.0049 3643.9932 7523.9932 3627.9932 7537.9932 C 3612.9932 7549.9932 3423.0049 7528.0059 3190.0049 7486.0059 C 3116.0049 7472.0059 3021.0049 7456 2980.0049 7450 C 2939.0049 7444 2865.0049 7428.0049 2815.0049 7415.0049 C 2721.0049 7390.0049 2503.0039 7340.0049 2489.0039 7340.0049 C 2485.0039 7340.0049 2504.001 7377.9951 2531.001 7424.9951 C 2622.001 7578.9951 2667 7762.0049 2655 7925.0049 C 2641 8116.0049 2605.9932 8290.998 2562.9932 8372.998 C 2554.9932 8388.998 2551.0029 8404.001 2553.0029 8406.001 C 2556.0029 8409.001 2593.001 8402.001 2636.001 8391.001 C 2852.001 8336.001 3599.0039 8201.001 3629.0039 8211.001 C 3634.0039 8213.001 3613.9932 8258.0059 3582.9932 8311.0059 L 3527.0068 8407.9932 L 3465.9961 8413.999 C 3345.9961 8427.999 2910.9971 8501.9961 2606.9971 8560.9961 C 2507.6221 8580.3711 2460.9814 8588.4277 2426.792 8587.832 z M 2388.3252 8318.2422 C 2398.208 8319.7363 2407.5049 8308.877 2425.0049 8282.002 C 2444.6659 8252.2296 2459.4289 8206.9954 2469.9756 8145.4346 L 2323.6377 8145.4346 C 2333.5632 8223.1492 2348.6732 8280.9132 2367.9932 8302.9932 C 2376.2432 8311.9932 2382.3955 8317.3457 2388.3252 8318.2422 z M 2093.291 8057.6904 L 2481.0791 8057.6904 C 2483.5308 8030.5388 2485.5986 8001.7709 2486.9971 7970.0049 C 2490.347 7886.2577 2486.9986 7812.8171 2477.7979 7749.5312 L 2082.0557 7749.5312 C 2080.4278 7750.718 2078.7251 7751.9124 2077.998 7753.0029 C 2068.998 7767.0029 2068.0059 7970.0068 2076.0059 8022.0068 C 2079.4852 8042.883 2083.7921 8052.7321 2093.291 8057.6904 z M 2322.9053 7661.7871 L 2459.502 7661.7871 C 2445.8203 7615.6874 2427.3418 7578.4194 2403.999 7551.001 C 2354.178 7491.9538 2338.3995 7510.4181 2322.9053 7661.7871 z " />
    <path
       id="path2"
       d="M 7852.8809 8589.0039 C 7804.0059 8588.2539 7737.0049 8577.0049 7630.0049 8555.0049 C 7346.0049 8496.0049 6949.9951 8434 6604.9951 8395 C 6527.9951 8386 6398 8370.0049 6315 8360.0049 C 6028 8324.0049 5536.0068 8286 5222.0068 8275 C 5121.0068 8271 5028.998 8264.9961 5017.998 8260.9961 C 4998.998 8253.9961 5001.001 8248.9951 5051.001 8189.9951 C 5133.001 8092.9951 5149.0039 8086.999 5264.0039 8098.999 C 5316.0039 8104.999 5392.999 8110 5433.999 8110 C 5518.999 8110 6038.9951 8153.0059 6229.9951 8176.0059 C 6298.9951 8184.0059 6436.0049 8200.001 6535.0049 8211.001 C 6634.0049 8222.001 6783.0049 8242.0049 6865.0049 8255.0049 C 6948.0049 8268.0049 7069.9971 8285.9951 7136.9971 8294.9951 C 7203.9971 8302.9951 7368.0068 8335 7502.0068 8365 C 7636.0068 8395 7755.9932 8420.0049 7767.9932 8420.0049 L 7792.002 8420.0049 L 7765.0049 8388.9941 C 7708.0049 8319.9941 7673.999 8226 7653.999 8080 C 7614.999 7784 7659.9961 7547.0029 7785.9961 7393.0029 C 7804.9961 7370.0029 7819.9951 7348.9961 7819.9951 7345.9961 C 7819.9951 7334.9961 7738.0049 7351.0049 7615.0049 7385.0049 C 7549.0049 7403.0049 7465.9951 7424.0049 7429.9951 7430.0049 C 7393.9951 7436.0049 7309.0049 7452 7240.0049 7465 C 7094.0049 7493 6890.0049 7513.9951 6625.0049 7529.9951 C 6521.0049 7535.9951 6381 7546.001 6315 7551.001 C 6249 7557.001 6119.0049 7565.0039 6025.0049 7569.0039 L 5854.9951 7574.9951 L 5943.0029 7490.0049 C 5992.0029 7443.0049 6042.0049 7399.0029 6055.0049 7393.0029 C 6069.0049 7385.0029 6181.0059 7373.9951 6336.0059 7364.9951 C 6712.0059 7342.9951 6852.0049 7330.9951 7060.0049 7304.9951 C 7232.0049 7282.9951 7524.998 7228.0059 7537.998 7216.0059 C 7540.998 7212.0059 7536.001 7170.0068 7526.001 7122.0068 C 7517.001 7074.0068 7505 6986.9951 7500 6929.9951 C 7480 6704.9951 7449.001 6442.0068 7436.001 6387.0068 C 7428.001 6351.0068 7409.9971 6313.9971 7391.9971 6291.9971 C 7331.9971 6220.9971 7287.0029 6151.002 7293.0029 6137.002 C 7296.0029 6130.002 7319.9971 6114.9951 7346.9971 6104.9951 C 7372.9971 6094.9951 7431.998 6065.0039 7477.998 6039.0039 C 7522.998 6012.0039 7565.0049 5990.0049 7570.0049 5990.0049 C 7591.0049 5990.0049 7600.0049 6034.0029 7600.0049 6133.0029 C 7600.0049 6397.0029 7653.002 6888.0049 7702.002 7085.0049 C 7722.002 7163.0049 7727.9951 7175.002 7744.9951 7172.002 C 7887.9951 7153.002 7927.002 7159.998 7987.002 7217.998 C 8063.002 7291.998 8132.9961 7453.9961 8145.9961 7585.9961 C 8149.9961 7620.9961 8157.0029 7649.9951 8163.0029 7649.9951 C 8168.0029 7649.9951 8188.0068 7636.9951 8207.0068 7619.9951 C 8248.0068 7583.9951 8279.0039 7582.0039 8309.0039 7614.0039 C 8327.0039 7633.0039 8332.9932 7654.0059 8337.9932 7726.0059 C 8352.9932 7920.0059 8334.9961 8104.002 8295.9961 8162.002 C 8265.9961 8207.002 8212.0039 8212.9951 8174.0039 8174.9951 C 8160.0039 8160.9951 8146.0039 8150.9932 8144.0039 8152.9932 C 8141.0039 8154.9932 8133.0049 8200.002 8125.0049 8252.002 C 8100.0049 8420.002 8053.0068 8510 7967.0068 8560 C 7932.5068 8580 7901.7559 8589.7539 7852.8809 8589.0039 z M 7900.0049 8309.9951 C 7905.0049 8309.9951 7914 8292.9932 7920 8272.9932 C 7930.6915 8235.0556 7938.6288 8193.8146 7944.624 8148.0859 L 7834.9805 8148.0859 C 7855.0303 8240.6508 7880.6052 8309.9951 7900.0049 8309.9951 z M 7818.9697 8060.3418 L 8179.4238 8060.3418 C 8186.8868 8054.969 8191.6507 8046.0586 8197.002 8030.0049 C 8214.002 7980.0049 8213.0059 7817.001 8196.0059 7776.001 C 8192.3771 7767.2316 8186.1328 7758.9813 8179.2334 7751.6553 L 7812.7148 7751.6553 C 7803.338 7822.1972 7801.6155 7900.911 7808.9941 7982.998 C 7811.5643 8009.0205 7815.085 8034.861 7818.9697 8060.3418 z M 7829.751 7663.8965 L 7950.0586 7663.8965 C 7943.281 7559.6411 7932.3944 7510 7913.9941 7510 C 7905.9941 7510 7890.0068 7526.998 7877.0068 7547.998 C 7857.222 7579.1843 7841.6271 7618.8916 7829.751 7663.8965 z " />
    <path
       d="m 4403,8413 c 2,-4 40,-69 82,-143 73,-126 152,-247 269,-413 27,-37 46,-70 44,-73 -3,-2 -18,2 -34,11 -16,8 -33,15 -37,15 -16,0 -293,133 -392,188 -102,56 -468,276 -562,338 -29,19 -53,29 -53,22 0,-78 378,-516 640,-741 139,-120 133,-112 97,-121 -43,-10 -315,77 -582,188 -64,26 -217,104 -259,132 -14,9 -26,13 -26,10 0,-13 53,-111 83,-155 47,-69 271,-310 344,-371 37,-30 68,-60 70,-66 4,-13 -21,-26 -190,-93 -174,-70 -278,-129 -427,-245 -71,-55 -250,-225 -250,-237 0,-5 21,5 48,21 68,42 186,87 315,119 120,31 227,48 227,36 0,-4 -42,-57 -94,-119 -119,-142 -182,-239 -261,-401 -105,-217 -181,-497 -191,-709 -3,-55 -7,-117 -9,-136 l -4,-35 19,25 c 11,14 34,52 51,84 70,129 169,263 279,374 119,119 146,135 129,80 -91,-307 -109,-411 -116,-668 -6,-231 5,-327 58,-509 31,-110 111,-315 155,-403 35,-69 115,-187 144,-213 l 23,-20 -11,20 c -5,11 -13,40 -16,65 -30,234 -37,312 -31,370 7,64 38,165 55,175 4,3 45,-64 90,-148 46,-83 135,-233 198,-332 125,-195 202,-346 251,-495 59,-180 72,-259 78,-465 4,-171 2,-206 -21,-353 -14,-89 -39,-215 -56,-280 -16,-65 -36,-161 -44,-213 -20,-121 -30,-316 -19,-353 8,-27 10,-28 26,-11 10,9 49,62 89,116 39,56 102,128 141,162 356,314 376,334 510,498 173,211 290,462 318,682 14,106 0,295 -31,426 -19,77 -84,249 -145,379 -22,46 -23,52 -7,43 53,-28 141,-149 209,-286 92,-185 121,-303 129,-515 7,-169 -10,-272 -77,-474 -21,-66 -37,-121 -35,-124 10,-9 133,56 195,103 91,70 304,316 369,428 30,51 58,103 63,116 6,14 24,54 40,90 17,37 43,116 57,176 24,98 26,129 26,285 -1,215 -15,277 -108,465 -99,200 -245,364 -521,583 -228,181 -413,380 -485,522 -38,75 -61,93 -160,125 -47,16 -95,35 -107,43 l -23,14 19,-56 c 93,-268 271,-493 601,-756 196,-157 286,-243 372,-354 127,-165 189,-310 209,-495 27,-249 -36,-496 -183,-717 l -53,-79 -6,140 c -10,222 -65,403 -183,602 -106,177 -214,295 -578,632 -381,351 -517,569 -616,986 l -29,120 -16,-39 c -23,-51 -37,-144 -37,-237 0,-187 112,-455 285,-679 24,-30 86,-102 138,-159 155,-169 368,-526 435,-732 54,-164 63,-211 69,-349 6,-163 -11,-279 -61,-408 -100,-260 -223,-433 -476,-670 -73,-68 -133,-122 -135,-120 -1,2 15,73 36,158 73,297 95,540 64,742 -19,127 -69,313 -112,418 -55,135 -166,345 -243,464 -186,284 -283,473 -343,661 -21,66 -47,207 -47,256 0,21 -4,39 -9,39 -17,0 -110,-161 -142,-245 -17,-44 -44,-120 -59,-170 l -28,-90 -8,80 c -5,44 -9,184 -8,310 0,193 4,251 23,359 55,311 136,569 218,691 38,57 44,90 14,80 -64,-20 -384,-212 -463,-278 -27,-21 -48,-37 -48,-34 0,30 133,287 194,376 28,40 58,83 66,96 8,12 48,59 89,104 131.2045,179.212 177.413,105.6242 341,1 70,-36 378,-145 448,-160 l 63,-13 -6,-63 -7,-62 85,-84 c 103,-101 153,-132 330,-203 182,-74 259,-85 418,-60 63,10 177,20 254,22 165,6 233,-7 441,-82 256,-93 382,-184 479,-349 29,-50 61,-115 71,-143 10,-29 22,-53 26,-53 11,0 95,160 123,236 86,225 100,314 85,510 -12,144 -31,237 -67,334 -34,92 -75,180 -82,180 -3,0 -15,-29 -25,-65 -21,-73 -48,-115 -75,-115 -48,0 -267,97 -326,144 -36,29 -78,190 -79,303 -1,69 -4,83 -17,83 -23,0 -96,39 -329,176 -113,67 -225,131 -250,144 -53,26 -178,114 -308,218 -51,40 -139,105 -195,144 -56,39 -122,88 -147,108 -25,21 -83,66 -130,100 -101,75 -187,147 -435,361 -90,78 -181,148 -172,132 z m 232,-742 c 206,-101 718,-337 875,-403 145,-61 446,-217 550,-285 58,-38 113,-72 123,-76 22,-8 29,-26 62,-172 39,-166 54,-198 112,-235 136,-87 355,-180 456,-195 43,-7 47,-10 53,-41 10,-56 -2,-406 -15,-441 l -13,-33 -33,40 c -18,21 -54,58 -81,81 -85,74 -501,264 -676,310 -92,24 -239,25 -385,3 -250,-38 -519,18 -653,135 -25,21 -42,42 -38,46 4,5 56,19 115,32 136,30 303,106 282,128 -3,2 -106,18 -229,35 -293,39 -205,20 -725,160 l -100,27 80,8 c 44,4 199,4 345,-1 322,-11 522,-10 546,4 15,8 3,16 -67,50 -46,22 -137,58 -201,80 -192,67 -428,185 -633,317 -44,28 -124,78 -177,110 -54,33 -96,61 -94,63 2,1 50,-17 107,-41 57,-24 160,-61 229,-81 69,-21 223,-69 342,-106 242,-77 421,-120 494,-120 h 49 l -30,25 c -16,13 -67,50 -113,82 -46,32 -156,109 -245,171 -213,148 -319,232 -616,490 -14,12 15,-3 64,-35 50,-32 158,-91 240,-132 z m -285,-591 c 14,-10 34,-27 44,-39 18,-20 18,-22 2,-40 -37,-40 -243,-78 -328,-60 l -52,12 69,33 c 39,19 93,54 120,79 44,40 54,44 85,39 19,-3 46,-14 60,-24 z"
       id="path3"
       sodipodi:nodetypes="cccccsccsccccscccccsccsccccccccccccccccccccccccccccccccccccccccccccccccccccccccccccccsccccccccccccsscccccccccscccccccccccccccscccscsccscccscccccccccccccccccccccccccccccccccsccsccsccccscccccccs" />
    <path
       d="M5597 6908 c23 -24 57 -76 78 -116 42 -86 102 -155 160 -185 34 -17 56 -20 142 -19 87 1 105 -1 126 -18 14 -11 28 -20 30 -20 3 0 -15 39 -40 88 -60 116 -105 157 -226 205 -88 35 -294 107 -306 107 -3 0 13 -19 36 -42z"
       id="path4" />
    <path
       d="M6633 6223 c-34 -6 -28 -28 15 -59 20 -15 54 -44 76 -63 l39 -36 -6 73 c-3 39 -9 77 -12 82 -6 10 -68 11 -112 3z"
       id="path5" />
    <path
       d="M4088 8286 c16 -19 44 -54 60 -79 25 -35 40 -47 74 -55 68 -17 168 -26 168 -15 0 17 -51 138 -64 151 -12 12 -152 31 -235 32 l-33 0 30 -34z"
       id="path6" />
    <path
       d="m 8405,7719 c -3,-9 0,-16 7,-17 7,0 39,-4 70,-8 35,-4 76,-2 105,5 76,19 203,86 266,140 l 58,50 -52,41 c -134.9003,90.3994 -430.0058,200.0488 -470,187 -31.3354,-14.2619 51.5389,-278.9716 16,-398 z"
       id="path7"
       sodipodi:nodetypes="ccccccccc" />
    <path
       d="M1749 8080 c-91 -5 -101 -8 -200 -57 -102 -51 -199 -123 -199 -146 1 -18 132 -115 203 -150 50 -25 77 -32 144 -35 111 -6 140 6 148 62 3 22 5 106 3 186 l-3 145 -96 -5z"
       id="path8" />
    <path
       d="M3278 7103 c6 -2 18 -2 25 0 6 3 1 5 -13 5 -14 0 -19 -2 -12 -5z"
       id="path9" />
    <path
       d="M2749 5628 c-3 -22 -1 -34 4 -29 5 5 7 21 5 37 -3 27 -4 26 -9 -8z"
       id="path11" />
    <path
       d="M2661 5328 c1 -90 4 -175 8 -190 l6 -27 55 19 c30 11 114 50 187 86 150 76 148 61 26 143 -74 49 -239 131 -265 131 -17 0 -18 -12 -17 -162z"
       id="path12" />
    <path
       d="M7514 4496 c-38 -18 -96 -53 -129 -78 -74 -55 -152 -125 -145 -130 30 -21 342 -168 356 -168 8 0 4 399 -4 404 -5 3 -40 -10 -78 -28z"
       id="path15" />
    <path
       d="M2650 4316 c0 -113 2 -206 4 -206 3 0 90 42 195 94 l190 94 -95 63 c-161 108 -230 149 -263 155 l-31 7 0 -207z"
       id="path16" />
    <g
       id="g40">
      <path
         id="path17"
         d="M 2662.998,4036.0059 2651.001,3940 c -6,-52 -16.002,-148.9951 -22.002,-214.9951 -17,-199 -37.998,-333.9981 -67.998,-457.9981 -16,-65 -30.003,-120.0068 -33.003,-122.0068 -2,-2 -32.9941,1.002 -68.9941,7.002 -35,6 -76.0107,7.9951 -91.0107,4.9951 -75,-19 -181.9883,-146.0039 -212.9883,-254.0039 -10,-32 -24.0069,-97.9971 -32.0069,-146.9971 -8,-50 -15.999,-93.9981 -18.999,-97.9981 -3,-5 -16.9922,10e-4 -31.9922,11.001 -38,26 -69.0029,34.001 -108.0029,26.001 -43,-8 -53.9971,-31.999 -41.9971,-93.999 12,-62 9.9971,-327.9951 -3.0029,-409.9951 -12,-74 -1.999,-104.0098 41.001,-125.0098 38,-18 65.9931,-9.001 102.9931,33.999 31,37 35.0049,38.0049 55.0049,25.0049 14,-10 22.9971,-31.0029 26.9971,-63.0029 25,-178 83.9932,-290.002 177.9932,-337.002 42,-21 65.0078,-24.9902 133.0078,-24.9902 93,0 286.9961,26.9902 510.9961,69.9902 268,52 661.998,109.0098 877.998,125.0098 44,4 171.0117,16.9961 282.0117,30.9961 112,13 215.9873,23.9941 231.9873,23.9941 h 29.0039 l -18.999,61.0108 c -10,33 -18.999,70.9941 -18.999,83.9941 0,29 -12.0049,32.9941 -70.0049,23.9941 -57,-9 -296.9951,-34.999 -454.9951,-48.999 -66,-6 -208,-23.9902 -315,-39.9902 -107,-16 -230.9951,-34.0049 -274.9951,-40.0049 -129,-18 -441.0088,-79.0059 -564.0088,-111.0059 -63,-16 -115.9932,-27.9902 -117.9932,-24.9902 -2,2 14.002,44.9951 37.002,94.9951 25,55 46.9971,125.0078 56.9971,178.0078 38,213 1.9941,538.9912 -81.0059,725.9912 -13,31 -42.9912,76.001 -65.9912,101.001 -52,57 -43.0039,57.9961 90.9961,15.9961 140,-43 447.9941,-94.999 743.9941,-123.999 143,-14 343.0049,-34.9961 445.0049,-45.9961 238,-25 436.9932,-40.0049 522.9932,-40.0049 h 67.0019 v 52.9981 c 0,28 4.0088,67.0048 9.0088,85.0048 10,32 10.0029,32.0069 -26.9971,32.0069 -42,1 -199.0019,11.999 -472.0019,33.999 -102,8 -252.0098,20.001 -335.0098,26.001 -82,7 -197,18.001 -255,26.001 -94,13 -580.9883,94.9941 -587.9883,98.9941 -1,1 6.9883,27.9961 17.9883,60.9961 26,74 56.0088,260.0019 69.0088,427.0019 7,88 15.001,136.9991 26.001,153.9991 18,27 106.998,86.997 172.998,116.997 23,10 41.9971,22.001 41.9971,26.001 0,11 -151.0049,78.0108 -205.0049,91.0108 -27,6 -74.9961,18.9931 -105.9961,27.9931 z m -300,-1226.001 c 7,0 25.0088,-12.0117 39.0088,-27.0117 34.2894,-36.8293 54.4085,-77.1441 68.4082,-147.3047 h -159.6826 c 8.015,105.4242 26.5683,174.3164 52.2656,174.3164 z m -247.1044,-260.5371 h 367.2949 c 2.3919,-21.2375 4.672,-43.9321 6.8115,-69.4629 6.9263,-78.0782 5.8947,-177.8775 -1.2891,-260.625 h -166.8164 c -174.3862,0.071 0.086,-0.061 -174.4336,0 H 2110.21 v -0.044 c -4.1437,0.2175 -8.1239,0.6592 -12.2168,0.6592 h -30 l 4.0136,153.0029 c 2,83 6.9864,158 10.9864,165 4.4766,5.3722 17.9605,10.4139 32.9004,11.4698 z m 215.581,-419.4141 h 145.5615 c -2.1795,-11.4354 -4.4954,-22.0642 -7.0312,-31.0547 -12,-42 -47.0117,-96.998 -72.0117,-112.998 -30.9672,-18.8496 -50.9189,21.9008 -66.5186,144.0527 z"
         sodipodi:nodetypes="ccccccccccccscccccsscccsccsccsccccccccccscsccccccccccscccscccsccccccccsccccccccc" />
    </g>
    <path
       id="path18"
       d="M 7591.8604 3968.8574 C 7586.376 3968.748 7579.2549 3966.498 7570.0049 3962.998 C 7535.0049 3949.998 7360.9951 3828.0059 7309.9951 3781.0059 L 7255.0049 3730.9961 L 7300.0049 3730 C 7360.0049 3729 7418.9971 3714.9971 7436.9971 3696.9971 C 7444.9971 3688.9971 7457.0049 3639.999 7465.0049 3583.999 C 7472.0049 3528.999 7482.9951 3445.0049 7489.9951 3395.0049 C 7496.9951 3346.0049 7510.0059 3263.0059 7521.0059 3211.0059 C 7531.0059 3159.0059 7538.0059 3114.9932 7536.0059 3112.9932 C 7532.0059 3108.9932 7290.9951 3064.9951 7084.9951 3029.9951 C 6889.9951 2996.9951 6536.0049 2965.9951 6250.0049 2954.9951 C 6025.0049 2946.9951 5794.001 2922.9932 5756.001 2902.9932 C 5739.001 2893.9932 5711.9971 2878.002 5696.9971 2867.002 C 5680.9971 2856.002 5638.9941 2834.9951 5603.9941 2819.9951 C 5567.9941 2804.9951 5533.998 2787.9971 5527.998 2781.9971 C 5508.998 2762.9971 5629.0039 2756.9941 5924.0039 2763.9941 C 6317.0039 2772.9941 6532.0049 2786 6745.0049 2815 C 6844.0049 2829 6988 2847.001 7065 2856.001 C 7219 2873.001 7558.0049 2937.9951 7660.0049 2969.9951 C 7696.0049 2980.9951 7752.0039 2993.0068 7784.0039 2997.0068 L 7842.9932 3002.998 L 7803.0029 2949.0039 C 7708.0029 2822.0039 7657.0029 2666.9951 7638.0029 2444.9951 C 7621.0029 2233.9951 7653.0049 2016.998 7720.0049 1907.998 C 7756.0049 1847.998 7761 1847.999 7545 1903.999 C 7371 1948.999 7131.9971 1988.0059 6626.9971 2056.0059 C 6484.9971 2075.0059 6079.0049 2107.001 5800.0049 2121.001 C 5502.0049 2136.001 4724.9951 2139.0039 4684.9951 2124.0039 C 4661.9951 2116.0039 4648.0068 2098.001 4622.0068 2046.001 C 4604.0068 2008.001 4591.9951 1975.001 4594.9951 1971.001 C 4598.9951 1968.001 4808.998 1964.999 5062.998 1963.999 C 5316.998 1963.999 5638 1958.002 5775 1952.002 C 6075 1938.002 6566.9951 1890.0049 6814.9951 1850.0049 C 6913.9951 1834.0049 7033 1816 7080 1810 C 7127 1804 7221 1786.9941 7290 1773.9941 C 7448 1741.9941 7764 1700.0049 7845 1700.0049 C 7932 1700.0049 7982.9971 1728.9932 8036.9971 1807.9932 C 8088.9971 1884.9932 8119.9961 1964.999 8130.9961 2053.999 C 8135.9961 2091.999 8142 2125.0029 8145 2128.0029 C 8147 2131.0029 8165.0049 2119.0059 8185.0049 2101.0059 C 8205.0049 2084.0059 8230.998 2069.9951 8242.998 2069.9951 C 8263.998 2069.9951 8299.9961 2088.9951 8325.9961 2114.9951 C 8343.9961 2131.9951 8351 2299.001 8340 2421.001 C 8328 2555.001 8308.001 2629.0068 8276.001 2667.0068 L 8253.0029 2694.0039 L 8208.999 2676.9971 C 8184.999 2667.9971 8163 2663.0029 8160 2668.0029 C 8156 2672.0029 8147.9971 2718.0068 8141.9971 2772.0068 C 8117.9971 2974.0068 8062.998 3081.999 7957.998 3133.999 C 7898.998 3162.999 7858.9971 3165.9961 7781.9971 3145.9961 C 7728.9971 3131.9961 7729.0049 3132.0049 7720.0049 3155.0049 C 7671.0049 3285.0049 7609.9951 3685.998 7609.9951 3887.998 C 7609.9951 3950.248 7608.3135 3969.1855 7591.8604 3968.8574 z M 7912.998 2807.002 C 7919.998 2805.002 7932.9941 2771.9941 7943.9941 2733.9941 C 7950.7378 2707.4693 7954.8326 2681.4639 7957.4414 2643.9062 L 7840.6934 2643.9062 C 7866.1431 2742.9305 7895.435 2812.8563 7912.998 2807.002 z M 7820.2588 2550.625 L 8128.667 2550.625 L 8128.667 2550.1855 L 8152.002 2548.0029 C 8177.002 2546.0029 8186.0029 2539 8193.0029 2515 C 8198.0029 2499 8203.0039 2432.0068 8204.0039 2367.0068 C 8205.0039 2260.0068 8203.001 2246.999 8186.001 2233.999 C 8179.0924 2228.9746 8169.2996 2225.4256 8159.5459 2222.9687 L 7807.0752 2222.9687 C 7796.9492 2318.383 7798.2379 2427.7567 7815 2526.001 C 7816.5492 2534.6873 7818.6062 2542.1112 7820.2588 2550.625 z M 7821.2842 2129.6875 L 7948.9893 2129.6875 C 7941.5116 2067.5929 7930.3359 2026.9903 7913.9941 2001.9971 C 7900.9941 1982.9971 7895.9941 1980.9961 7883.9941 1990.9961 C 7857.1246 2013.0142 7835.7305 2063.8027 7821.2842 2129.6875 z " />
    <path
       d="m 8428,2272 c -6,-40 -8,-76 -4,-79 4,-4 35,-9 71,-11 71,-5 153,18 241,66 54,30 163,112 163,124 2,25 -140,121 -227,155 -94.3538,37.1212 -245.7252,80.2431 -266.75,60.9063 -29.1275,-98.0501 32.7831,-224.8202 22.75,-315.9063 z"
       id="path19"
       sodipodi:nodetypes="cccccccc" />
    <path
       d="M1749 2560 c-93 -5 -101 -7 -210 -62 -115 -57 -189 -109 -188 -131 0 -16 137 -112 220 -155 70 -36 162 -51 232 -38 34 6 36 9 42 59 3 29 5 115 3 192 l-3 140 -96 -5z"
       id="path20" />
    <path
       d="m 7480.3573,5536.5954 c -3.9753,-25.9068 -13.9688,-42.1615 -50.1879,-62.2158 -81.0679,-43.9204 -168.2277,-102.1198 -162.0096,-108.0642 26.7096,-25.0519 278.7564,-154.8297 292.6142,-156.8201 7.9188,-1.1374 -6.5023,525.9006 -1.9468,590.5721 -56.3323,48.626 -68.0001,-195.24 -78.4699,-263.472 z"
       id="path15-9"
       sodipodi:nodetypes="sccscs" />
  </g>
</svg>