<?xml version="1.0" encoding="UTF-8"?>
<svg width="1024pt" height="1024pt" version="1.0" viewBox="0 0 1024 1024" xmlns="http://www.w3.org/2000/svg">
 <g>
  <path transform="matrix(.1 0 0 -.1 0 1024)" d="m2357.2 8480.6c-319.57-703.48-687.06-287.78 149.56-1219.9 214.34-443.04 198.1-1382.9 189.17-1924.7 40.788-902.51-8.6845-1234.4-0.9375-2295.5 1.1769-4.0527-150.04-34.715-225.47-47.051-836.61-932.16-417.43-497.25-119.08-1182.8 2174.2 262.96 2531.7 281.12 5462.8 40.415 497.37 323.88 631.54 658.58 40.371 1147.2-25.995 21.487-135.75 102.55-138.57 115.69-295.77 977.68-339.88 1973.1-59.238 4045.7 6.1178 45.181 150.42 163.69 183.93 185.93 572.42 379.89 475.75 759.59-21.621 1083.5-2699.5-424.89-4891.7-121.29-5460.9 51.665z" fill="#f9edd5" stroke-width="7.5"/>
  <ellipse cx="788.58" cy="815.27" rx="12.33" ry="11.27" fill="#c8b592" stroke-width=".75"/>
  <ellipse cx="792.33" cy="753.77" rx="12.33" ry="11.27" fill="#c8b592" stroke-width=".75"/>
  <ellipse cx="239.58" cy="817.52" rx="12.33" ry="11.27" fill="#c8b592" stroke-width=".75"/>
  <ellipse cx="238.08" cy="753.02" rx="12.33" ry="11.27" fill="#c8b592" stroke-width=".75"/>
  <ellipse cx="238.08" cy="262.52" rx="12.33" ry="11.27" fill="#c8b592" stroke-width=".75"/>
  <ellipse cx="790.83" cy="203.27" rx="12.33" ry="11.27" fill="#c8b592" stroke-width=".75"/>
  <path d="m757.5 687.64c-82.143 11.161-159.74 19.377-239.35 21.229-3.7039 11.413-8.4988 21.921-14.565 33.171 93.38-0.44155 175.44-8.2085 256.11-13.115-4.415-15.542-2.233-27.471-2.1943-41.285zm-490.01 4.3887c-7.2072 13.986-4.7363 24.586-3.3691 33.461 73.111 10.554 138.66 15.073 199.31 16.216 4.9693-10.105 8.4778-19.661 11.865-32.55-65.942-0.43213-133.98-5.4613-207.8-17.127z" fill="#c8b592" stroke-width=".61301"/>
  <path d="m246.06 854.14c184.79-38.893 304.68-44.317 525.14-5.0539-18.998-20.337-18.661-34.359-19.152-42.135-142.83-25.518-445.11-19.775-477.94 2.6799-2.693 15.706-3.4405 28.178-28.053 44.509z" fill="#c8b592" stroke-width=".64529"/>
  <path d="m780.13 802.48c2.7117 0.15475 31.731 0.80029 44.871 0.72273-8.3844-4.4349-1.1736-6.9547-2.3482-10.657-11.457-1.1129-36.764-1.9061-47.052-0.24445-0.56759 1.1009 5.034 8.5701 4.5292 10.179z" fill="#c8b592" stroke-width=".59874"/>
  <path d="m205.66 802.67c2.7117 0.15532 33.606 0.38345 46.746 0.3056-0.9781-5.0505-1.1736-6.9799-2.3482-10.696-11.457-1.117-36.764-1.913-47.052-0.24533-0.56759 1.1049 3.159 9.0209 2.6542 10.635z" fill="#c8b592" stroke-width=".59982"/>
  <path d="m206.66 250.08c2.7117 0.16454 31.731 0.8509 44.871 0.76843 0.61565-7.5104-1.1736-7.3945-2.3482-11.331-11.457-1.1833-36.764-2.0266-47.052-0.2599-0.56759 1.1705 5.034 9.112 4.5292 10.822z" fill="#c8b592" stroke-width=".61738"/>
  <path d="m780.07 250.41c2.7117 0.14941 31.731 0.77267 44.871 0.69778 0.61565-6.8199-1.1736-6.7146-2.3482-10.289-11.457-1.0745-36.764-1.8403-47.052-0.23601-0.56759 1.0629 5.034 8.2743 4.5292 9.8274z" fill="#c8b592" stroke-width=".58831"/>
  <path d="m507.38 240.92c-16.721-0.0717-33.086 0.0614-49.165 0.2959 2.0828 1.711 13.929 11.604 23.082 22.422 89.084 1.2846 186.95 13.414 288.34 30.519-18.998-18.383-18.661-31.058-19.151-38.087-62.488-10.092-155.49-14.774-243.11-15.149zm-75.562 0.81592c-80.313 2.0628-145.07 7.9765-159.27 16.756-2.693 14.197-3.4406 25.471-28.053 40.233 60.207-24.19 132.17-34.389 211.84-35.134-4.9557-3.8117-14.971-11.887-24.519-21.855z" fill="#c8b592" stroke-width=".61352"/>
  <ellipse cx="788.47" cy="266.36" rx="12.33" ry="11.27" fill="#c8b592" stroke-width=".75"/>
  <ellipse cx="241.46" cy="201.77" rx="12.33" ry="11.27" fill="#c8b592" stroke-width=".75"/>
 </g>
 <g transform="matrix(.1 0 0 -.1 0 1023.9)">
  <path d="m2426.8 8587.8c-20.514-0.3574-36.542-3.8291-56.792-9.8291-117-33-199-160-240-370-7-34-16.994-57.993-23.994-57.993s-30.002 13-52.002 30c-52 39-114 40.995-149 4.9951-31-30-31-40.007 0-77.007 24-28 24.994-35.991 23.994-140.99 0-112-10.994-237-23.994-290-6-23-0.9971-33.013 33.003-68.013 49-48 68.996-46.987 121 8.0127 48 51 64.008 37.989 73.008-61.011 8-86 29.994-181 53.994-232 20-41 111-128 158-151 30-14 47.007-15.002 107.01-7.0019 39 5 72 7.0068 75 2.0068 11-18 83.988-435.01 92.988-538.01 6-63 16.006-154.99 21.006-204.99 5-49 10.005-121.01 10.005-159.01v-67.998l26.997 7.002c14 3 69.992 25.995 121.99 49.995 53 23 113 48.005 134 55.005 20 6 37.002 14.999 37.002 18.999s-17.002 12.995-37.002 19.995c-58 21-102 49.999-117 78.999-7 15-25.005 128.01-40.005 252.01-43 373-46.992 402.99-61.992 463.99-8 32-13.001 60.007-11.001 62.007 18 18 483.99 107.99 669.99 128.99 157 18 340 45.01 345 50.01s-74 138.99-90 152.99c-15 12-204.99-9.9873-437.99-51.987-74-14-169-30.006-210-36.006s-115-21.995-165-34.995c-94-25-312-75-326-75-4 0 14.997 37.99 41.997 84.99 91 154 136 337.01 124 500.01-14 191-49.007 365.99-92.007 447.99-8 16-11.99 31.003-9.9903 33.003 3 3 39.998-4 82.998-15 216-55 963-190 993-180 5 2-15.011 47.005-46.011 100l-55.986 96.987-61.011 6.0058c-120 14-555 87.997-859 147-99.375 19.375-146.02 27.432-180.21 26.836zm-38.467-269.59c9.8828 1.4941 19.18-9.3652 36.68-36.24 19.661-29.772 34.424-75.007 44.971-136.57h-146.34c9.9255 77.715 25.036 135.48 44.356 157.56 8.25 9 14.402 14.352 20.332 15.249zm-295.03-260.55h387.79c2.4517-27.152 4.5195-55.92 5.918-87.686 3.3499-83.747 0-157.19-9.1992-220.47h-395.74c-1.6279 1.1868-3.3306 2.3812-4.0577 3.4717-9 14-9.9921 217-1.9921 269 3.4793 20.876 7.7862 30.725 17.285 35.684zm229.61-395.9h136.6c-13.682-46.1-32.16-83.368-55.503-110.79-49.821-59.047-65.6-40.583-81.094 110.79z" fill="#000000" stroke-width="7.5"/>
  <path d="m7852.9 8589c-48.875-0.75-115.88-11.999-222.88-33.999-284-59-680.01-121-1025-160-77-9-207-24.995-290-34.995-287-36-778.99-74.005-1093-85.005-101-4-193.01-10.004-204.01-14.004-19-7-16.997-12.001 33.003-71.001 82-97 98.003-103 213-90.996 52 6 129 11.001 170 11.001 85 0 605 43.006 796 66.006 69 8 206.01 23.995 305.01 34.995s248 31.004 330 44.004c83 13 204.99 30.99 271.99 39.99 67 8 231.01 40.005 365.01 70.005s253.99 55.005 265.99 55.005h24.009l-26.997-31.011c-57-69-91.006-162.99-111.01-308.99-39-296 5.9971-533 132-687 19-23 33.999-44.007 33.999-47.007 0-11-81.99 5.0088-204.99 39.009-66 18-149.01 39-185.01 45s-120.99 21.995-189.99 34.995c-146 28-350 48.995-615 64.995-104 6-244 16.006-310 21.006-66 6-196 14.003-290 18.003l-170.01 5.9912 88.008-84.99c49-47 99.002-91.002 112-97.002 14-8 126-19.008 281-28.008 376-22 516-34 724-60 172-22 464.99-76.989 477.99-88.989 3-4-1.997-45.999-11.997-93.999-9-48-21.001-135.01-26.001-192.01-20-225-50.999-487.99-63.999-542.99-8-36-26.004-73.01-44.004-95.01-60-71-104.99-141-98.994-155 3-7 26.994-22.007 53.994-32.007 26-10 85.001-39.991 131-65.991 45-27 87.007-48.999 92.007-48.999 21 0 30 43.998 30 143 0 264 52.997 755 102 952 20 78 25.993 89.997 42.993 86.997 143-19 182.01-12.004 242.01 45.996 76 74 145.99 236 158.99 368 4 35 11.007 63.999 17.007 63.999 5 0 25.004-13 44.004-30 41-36 71.997-37.991 102-5.9912 18 19 23.989 40.002 28.989 112 15 194-2.9971 378-41.997 436-30 45-83.992 50.993-121.99 12.993-14-14-28-24.002-30-22.002-3 2-10.999 47.009-18.999 99.009-25 168-71.998 258-158 308-34.5 20-65.251 29.754-114.13 29.004zm47.124-279.01c5 0 13.995-17.002 19.995-37.002 10.692-37.938 18.629-79.179 24.624-124.91h-109.64c20.05 92.565 45.625 161.91 65.024 161.91zm-81.035-249.65h360.45c7.463-5.3728 12.227-14.283 17.578-30.337 17-50 16.004-213-0.9961-254-3.6288-8.7694-9.8731-17.02-16.772-24.346h-366.52c-9.3768 70.542-11.099 149.26-3.7207 231.34 2.5702 26.022 6.0909 51.863 9.9756 77.344zm10.781-396.45h120.31c-6.7776-104.26-17.664-153.9-36.064-153.9-8 0-23.987 16.998-36.987 37.998-19.785 31.186-35.38 70.894-47.256 115.9z" fill="#000000" stroke-width="7.5"/>
  <path d="m4403 8413c2-4 40-69 82-143 73-126 152-247 269-413 27-37 46-70 44-73-3-2-18 2-34 11-16 8-33 15-37 15-16 0-293 133-392 188-102 56-468 276-562 338-29 19-53 29-53 22 0-78 378-516 640-741 139-120 133-112 97-121-43-10-315 77-582 188-64 26-217 104-259 132-14 9-26 13-26 10 0-13 53-111 83-155 47-69 271-310 344-371 37-30 68-60 70-66 4-13-21-26-190-93-174-70-278-129-427-245-71-55-250-225-250-237 0-5 21 5 48 21 68 42 186 87 315 119 120 31 227 48 227 36 0-4-42-57-94-119-119-142-182-239-261-401-105-217-181-497-191-709-3-55-7-117-9-136l-4-35 19 25c11 14 34 52 51 84 70 129 169 263 279 374 119 119 146 135 129 80-91-307-109-411-116-668-6-231 5-327 58-509 31-110 111-315 155-403 35-69 115-187 144-213l23-20-11 20c-5 11-13 40-16 65-30 234-37 312-31 370 7 64 38 165 55 175 4 3 45-64 90-148 46-83 135-233 198-332 125-195 202-346 251-495 59-180 72-259 78-465 4-171 2-206-21-353-14-89-39-215-56-280-16-65-36-161-44-213-20-121-30-316-19-353 8-27 10-28 26-11 10 9 49 62 89 116 39 56 102 128 141 162 356 314 376 334 510 498 173 211 290 462 318 682 14 106 0 295-31 426-19 77-84 249-145 379-22 46-23 52-7 43 53-28 141-149 209-286 92-185 121-303 129-515 7-169-10-272-77-474-21-66-37-121-35-124 10-9 133 56 195 103 91 70 304 316 369 428 30 51 58 103 63 116 6 14 24 54 40 90 17 37 43 116 57 176 24 98 26 129 26 285-1 215-15 277-108 465-99 200-245 364-521 583-228 181-413 380-485 522-38 75-61 93-160 125-47 16-95 35-107 43l-23 14 19-56c93-268 271-493 601-756 196-157 286-243 372-354 127-165 189-310 209-495 27-249-36-496-183-717l-53-79-6 140c-10 222-65 403-183 602-106 177-214 295-578 632-381 351-517 569-616 986l-29 120-16-39c-23-51-37-144-37-237 0-187 112-455 285-679 24-30 86-102 138-159 155-169 368-526 435-732 54-164 63-211 69-349 6-163-11-279-61-408-100-260-223-433-476-670-73-68-133-122-135-120-1 2 15 73 36 158 73 297 95 540 64 742-19 127-69 313-112 418-55 135-166 345-243 464-186 284-283 473-343 661-21 66-47 207-47 256 0 21-4 39-9 39-17 0-110-161-142-245-17-44-44-120-59-170l-28-90-8 80c-5 44-9 184-8 310 0 193 4 251 23 359 55 311 136 569 218 691 38 57 44 90 14 80-64-20-384-212-463-278-27-21-48-37-48-34 0 30 133 287 194 376 28 40 58 83 66 96 8 12 48 59 89 104 131.2 179.21 177.41 105.62 341 1 70-36 378-145 448-160l63-13-6-63-7-62 85-84c103-101 153-132 330-203 182-74 259-85 418-60 63 10 177 20 254 22 165 6 233-7 441-82 256-93 382-184 479-349 29-50 61-115 71-143 10-29 22-53 26-53 11 0 95 160 123 236 86 225 100 314 85 510-12 144-31 237-67 334-34 92-75 180-82 180-3 0-15-29-25-65-21-73-48-115-75-115-48 0-267 97-326 144-36 29-78 190-79 303-1 69-4 83-17 83-23 0-96 39-329 176-113 67-225 131-250 144-53 26-178 114-308 218-51 40-139 105-195 144s-122 88-147 108c-25 21-83 66-130 100-101 75-187 147-435 361-90 78-181 148-172 132zm232-742c206-101 718-337 875-403 145-61 446-217 550-285 58-38 113-72 123-76 22-8 29-26 62-172 39-166 54-198 112-235 136-87 355-180 456-195 43-7 47-10 53-41 10-56-2-406-15-441l-13-33-33 40c-18 21-54 58-81 81-85 74-501 264-676 310-92 24-239 25-385 3-250-38-519 18-653 135-25 21-42 42-38 46 4 5 56 19 115 32 136 30 303 106 282 128-3 2-106 18-229 35-293 39-205 20-725 160l-100 27 80 8c44 4 199 4 345-1 322-11 522-10 546 4 15 8 3 16-67 50-46 22-137 58-201 80-192 67-428 185-633 317-44 28-124 78-177 110-54 33-96 61-94 63 2 1 50-17 107-41s160-61 229-81c69-21 223-69 342-106 242-77 421-120 494-120h49l-30 25c-16 13-67 50-113 82s-156 109-245 171c-213 148-319 232-616 490-14 12 15-3 64-35 50-32 158-91 240-132zm-285-591c14-10 34-27 44-39 18-20 18-22 2-40-37-40-243-78-328-60l-52 12 69 33c39 19 93 54 120 79 44 40 54 44 85 39 19-3 46-14 60-24z" fill="#000000" stroke-width="7.5"/>
  <path d="m4402.1 8430.3c-3.2437-0.2085-9.724-2.5947-12.715-7.9688-2.9907-5.374-2.0037-9.6123-1.3916-11.909 0.591-2.2173 1.2672-3.4496 1.9043-4.585 1.6879-3.328 3.5358-6.3476 7.8955-13.916 4.5107-7.8306 10.755-18.647 18.252-31.641 14.994-25.987 34.97-60.696 55.942-97.646l0.044-0.059 0.029-0.059c73.265-126.46 152.58-247.92 269.72-414.13l0.073-0.1025 0.073-0.1026c10.344-14.174 18.884-27.111 26.001-38.452-7.378 3.6117-14.862 7.1037-21.226 9.6973-3.6021 1.4682-6.8692 2.7054-9.8144 3.6621-15.094 4.9029-4.151 2.3922-21.621 6.6797-9.4038 2.3079-21.398 8.9813-36.182 15.6-29.566 13.238-68.704 31.54-110.43 51.562-83.46 40.045-177.54 87.106-226.33 114.21l-0.029 0.015-0.029 0.029c-100.74 55.309-468.29 276.24-560.96 337.37l-0.015 0.015-0.029 0.015c-15.077 9.8782-28.778 17.453-39.829 22.046-5.5254 2.2966-10.085 3.9969-15.806 4.5264-2.8603 0.2648-6.3385 0.5861-11.25-1.8897-4.9115-2.4757-9.3311-10.074-9.3311-15.234 0-15.389 6.9347-30.58 17.695-50.537s26.034-43.721 45.073-70.679c38.08-53.916 91.209-120.49 152.48-191.87 122.53-142.75 246.84-282.7 399.27-433.55 0 0 83.717-79.061 68.994-18.193-128.59 113.78-325.27 331.22-445.5 471.28-60.842 70.879-113.53 136.96-150.73 189.64-18.602 26.338-33.344 49.354-43.184 67.602-3.0189 5.5989-5.3325 10.643-7.3389 15.322 6.879-3.6319 14.507-7.9823 23.027-13.564 95.355-62.889 459.62-281.84 562.94-338.57l0.015-0.015c50.208-27.892 144.11-74.819 227.9-115.02 41.896-20.102 81.201-38.482 111.17-51.899 14.983-6.7087 27.606-12.168 37.222-16.04 39.39-15.86 22.745-9.3001 53.262-20.332l-0.6446 0.3516c8.9178-5.0163 17.452-8.6397 24.829-10.898 3.6886-1.1294 7.0505-1.9379 10.518-2.3291s6.8556-2.1679 14.326 2.8125l2.4902 1.6699 1.6699 2.4902c3.404 5.106 2.7707 8.4533 2.5928 10.518s-0.5473 3.3695-0.9228 4.6143c-0.751 2.4895-1.6589 4.6041-2.7979 7.0312-2.278 4.8541-5.4872 10.676-9.5801 17.564-8.1516 13.718-19.811 31.454-33.501 50.23-116.85 165.79-195.55 286.33-268.29 411.87-19.31 34.022-36.975 64.722-51.475 89.868 3.048-2.3544 5.7542-4.4043 8.9941-6.9434 31.054-24.337 70.484-56.813 109.67-90.776h0.015l0.015-0.015c248.04-214.03 334.43-286.38 435.85-361.68l0.088-0.059 0.073-0.059c46.656-33.751 104.81-78.892 129.14-99.331l0.1464-0.1172 0.1319-0.1172c25.723-20.578 91.503-69.38 147.8-108.59 22.209-15.467 197.06-134.54 224.31-154.97 150.68-112.47 8.7745 26.572 8.7745 26.572-43.708 30.781-180.71 128.47-215.95 153-55.7 38.791-121.91 87.995-146.19 107.42l0.2783-0.2344c-25.641 21.539-83.406 66.326-130.72 100.56-100.58 74.688-186.17 146.35-434.11 360.29l-0.029 0.015c-39.552 34.278-79.245 66.98-110.79 91.699-15.774 12.362-29.488 22.722-40.269 30.366-5.3901 3.8222-10.043 6.9653-14.004 9.4189s-6.4283 4.2028-11.367 5.669c-1.4141 0.4199-3.0698 0.9701-6.3135 0.7617zm-808.92-588.34c-2.0192 0.1415-4.5407 0.449-8.7597-1.4502-4.2191-1.8991-9.3897-9.0973-9.3897-14.473 0-6.721 1.5711-9.2847 3.2959-13.872 1.7249-4.5875 4.0383-9.9026 6.8555-15.967 5.6345-12.128 13.288-27.16 21.885-43.154 17.192-31.985 37.966-67.582 53.569-90.469 19.626-28.811 43.028-66.283 95.23-124.12 0 0 40.699-31.343 38.965-12.671 0 0-93.429 130.23-109.41 153.69-14.396 21.114-35.123 56.506-51.929 87.773-5.8347 10.856-10.881 20.77-15.381 29.883 53.825-33.283 189.25-101.8 251.25-126.99 0.01 0 0.019-0.015 0.029-0.015 53.147-22.093 228.99-72.435 280.44-91.904 15.559 2.3594 60.249 7.4414 60.249 7.4414-66.957 24.63-258.74 82.876-329.3 112.21l-0.044 0.029-0.059 0.015c-62.032 25.2-217.62 104.79-256.33 130.59l-0.1025 0.059-0.1026 0.073c-7.7886 5.007-14.93 8.6579-21.167 10.957-3.1184 1.1496-5.7614 2.0753-9.7998 2.3584zm2320.2-4546.2c-47.432-28.923-118.41-97.187-133.44-108.75-29.849-22.622-75.803-50.496-114.92-71.162-19.565-10.337-37.524-18.926-50.596-24.155-0.4141-0.1656-0.7089-0.2514-1.1132-0.4102 1.2802 4.8605 2.2254 8.7294 4.0283 15.059 6.2902 22.081 15.484 52.192 25.928 85.02 3.9122 11.795 20.259 53.19 25.356 138.66l-38.394-78.911-3.1055-9.7998c-4.6199-14.568-7.4724-25.86-12.334-40.518l-0.029-0.088-0.029-0.073c-10.531-33.099-19.805-63.448-26.25-86.074-3.2227-11.313-5.7347-20.656-7.3828-27.7-0.824-3.522-1.4338-6.4249-1.831-9.0821-0.1986-1.3286-0.3605-2.5562-0.3955-4.2187s-1.6575-3.2926 2.6806-9.7998l1.0401-1.5674 1.4062-1.2598c5.1348-4.6213 9.8276-4.6871 13.125-4.7021v0.015c3.2974-0.015 6.0331 0.4692 8.9356 1.128 5.8051 1.3175 12.141 3.5261 19.512 6.4746 14.741 5.8971 33.282 14.809 53.467 25.474 40.37 21.33 86.91 49.44 119.06 73.814l0.029 0.029 0.044 0.029c23.928 18.406 54.594 47.297 88.726 82.324zm-1309.3 10.956-15.325-66.156c-1.0416-72.114-2.1272-117.69-17.532-216.15-13.912-88.439-38.983-214.65-55.693-278.54l-0.029-0.1025-0.015-0.1025c-16.116-65.47-36.094-161.2-44.253-214.19-10.142-61.376-17.65-140.64-21.299-209.6-1.8252-34.491-2.6757-66.374-2.3731-92.226 0.3025-25.853 1.1453-44.552 5.0977-57.847 2.0395-6.8829 3.7016-12.284 5.8008-17.153 2.1004-4.8728 4.3448-10.787 12.671-14.356 2.0815-0.8921 4.4004-1.3436 6.6504-1.4356h0.015c2.2501-0.092 4.4265 0.1746 6.2256 0.6885 3.5983 1.0278 6.0618 2.6081 8.2031 4.1748 3.9995 2.9263 7.186 6.3248 10.972 10.342 4.2959 3.8879 8.2496 8.7219 14.048 15.938 5.8464 7.2755 12.974 16.52 21.02 27.144 16.094 21.248 35.849 48.012 55.84 75l0.1319 0.1758 0.1318 0.1904c38.117 54.732 101.41 126.89 138.53 159.26l0.029 0.029 0.044 0.029c356.01 314.01 377.6 335.65 511.67 499.73 74.276 90.591 149.68 177.27 200.92 276.9l-0.542 33.911s-156.33-209.76-223.58-291.78l-0.015-0.015c-133.91-163.88-152.34-182.27-508.24-496.19-40.794-35.564-103.29-107.17-143.19-164.38-20.009-27.012-39.741-53.734-55.649-74.736-7.9542-10.501-14.964-19.574-20.493-26.455-5.5293-6.8809-10.177-11.987-10.84-12.583l-0.1758-0.1465c-0.5264 1.6702-0.8034 2.2135-1.4063 4.2481v0.015c-1.5475 5.2053-3.5758 24.762-3.8672 49.658s0.5442 56.27 2.3438 90.278c3.5992 68.017 11.078 146.72 20.933 206.34l0.03 0.176c7.8504 51.028 27.881 147.21 43.755 211.7 17.288 66.159 42.175 191.78 56.25 281.25v0.015l5.9662 41.116c17.073 223.12-2.7585 245.85-2.7585 245.85zm-100.88-1152.7c-0.036-0.032-0.082-0.1-0.1172-0.1318l0.8936 0.8642c-0.2749-0.292-0.5084-0.448-0.7764-0.7324z" fill="#f9edd5"/>
  <path d="m5597 6908c23-24 57-76 78-116 42-86 102-155 160-185 34-17 56-20 142-19 87 1 105-1 126-18 14-11 28-20 30-20 3 0-15 39-40 88-60 116-105 157-226 205-88 35-294 107-306 107-3 0 13-19 36-42z" fill="#000000" stroke-width="7.5"/>
  <path d="m6633 6223c-34-6-28-28 15-59 20-15 54-44 76-63l39-36-6 73c-3 39-9 77-12 82-6 10-68 11-112 3z" fill="#000000" stroke-width="7.5"/>
  <path d="m4088 8286c16-19 44-54 60-79 25-35 40-47 74-55 68-17 168-26 168-15 0 17-51 138-64 151-12 12-152 31-235 32h-33z" fill="#000000" stroke-width="7.5"/>
  <path d="m8405 7719c-3-9 0-16 7-17 7 0 39-4 70-8 35-4 76-2 105 5 76 19 203 86 266 140l58 50-52 41c-134.9 90.399-430.01 200.05-470 187-31.335-14.262 51.539-278.97 16-398z" fill="#000000" stroke-width="7.5"/>
  <path d="m1749 8080c-91-5-101-8-200-57-102-51-199-123-199-146 1-18 132-115 203-150 50-25 77-32 144-35 111-6 140 6 148 62 3 22 5 106 3 186l-3 145z" fill="#000000" stroke-width="7.5"/>
  <path d="m2661 5328c1-90 4-175 8-190l6-27 55 19c30 11 114 50 187 86 150 76 148 61 26 143-74 49-239 131-265 131-17 0-18-12-17-162z" fill="#000000" stroke-width="7.5"/>
  <path d="m7514 4496c-38-18-96-53-129-78-74-55-152-125-145-130 30-21 342-168 356-168 8 0 4 399-4 404-5 3-40-10-78-28z" fill="#000000" stroke-width="7.5"/>
  <path d="m2650 4316c0-113 2-206 4-206 3 0 90 42 195 94l190 94-95 63c-161 108-230 149-263 155l-31 7z" fill="#000000" stroke-width="7.5"/>
  <path d="m2663 4036-11.997-96.006c-6-52-16.002-149-22.002-215-17-199-37.998-334-67.998-458-16-65-30.003-120.01-33.003-122.01-2-2-32.994 1.002-68.994 7.002-35 6-76.011 7.9951-91.011 4.9951-75-19-181.99-146-212.99-254-10-32-24.007-97.997-32.007-147-8-50-15.999-93.998-18.999-97.998-3-5-16.992 1e-3 -31.992 11.001-38 26-69.003 34.001-108 26.001-43-8-53.997-31.999-41.997-93.999s9.9971-328-3.0029-410c-12-74-1.999-104.01 41.001-125.01 38-18 65.993-9.001 102.99 33.999 31 37 35.005 38.005 55.005 25.005 14-10 22.997-31.003 26.997-63.003 25-178 83.993-290 177.99-337 42-21 65.008-24.99 133.01-24.99 93 0 287 26.99 511 69.99 268 52 662 109.01 878 125.01 44 4 171.01 16.996 282.01 30.996 112 13 215.99 23.994 231.99 23.994h29.004l-18.999 61.011c-10 33-18.999 70.994-18.999 83.994 0 29-12.005 32.994-70.005 23.994-57-9-297-34.999-455-48.999-66-6-208-23.99-315-39.99s-231-34.005-275-40.005c-129-18-441.01-79.006-564.01-111.01-63-16-115.99-27.99-117.99-24.99-2 2 14.002 44.995 37.002 94.995 25 55 46.997 125.01 56.997 178.01 38 213 1.9941 538.99-81.006 725.99-13 31-42.991 76.001-65.991 101-52 57-43.004 57.996 90.996 15.996 140-43 447.99-94.999 743.99-124 143-14 343-34.996 445-45.996 238-25 436.99-40.005 522.99-40.005h67.002v52.998c0 28 4.0088 67.005 9.0088 85.005 10 32 10.003 32.007-26.997 32.007-42 1-199 11.999-472 33.999-102 8-252.01 20.001-335.01 26.001-82 7-197 18.001-255 26.001-94 13-580.99 94.994-587.99 98.994-1 1 6.9883 27.996 17.988 60.996 26 74 56.009 260 69.009 427 7 88 15.001 137 26.001 154 18 27 107 86.997 173 117 23 10 41.997 22.001 41.997 26.001 0 11-151 78.011-205 91.011-27 6-74.996 18.993-106 27.993zm-300-1226c7 0 25.009-12.012 39.009-27.012 34.289-36.829 54.408-77.144 68.408-147.3h-159.68c8.015 105.42 26.568 174.32 52.266 174.32zm-247.1-260.54h367.29c2.3919-21.238 4.672-43.932 6.8115-69.463 6.9263-78.078 5.8947-177.88-1.2891-260.62h-166.82c-174.39 0.071 0.086-0.061-174.43 0h-37.251v-0.044c-4.1437 0.2175-8.1239 0.6592-12.217 0.6592h-30l4.0136 153c2 83 6.9864 158 10.986 165 4.4766 5.3722 17.96 10.414 32.9 11.47zm215.58-419.41h145.56c-2.1795-11.435-4.4954-22.064-7.0312-31.055-12-42-47.012-96.998-72.012-113-30.967-18.85-50.919 21.901-66.519 144.05z" fill="#000000" stroke-width="7.5"/>
  <path d="m7591.9 3968.9c-5.4844-0.1094-12.606-2.3594-21.856-5.8594-35-13-209.01-134.99-260.01-181.99l-54.99-50.01 45-0.9961c60-1 118.99-15.003 136.99-33.003 8-8 20.008-56.998 28.008-113 7-55 17.99-138.99 24.99-188.99 7-49 20.011-132 31.011-184 10-52 17-96.013 15-98.013-4-4-245.01-47.998-451.01-82.998-195-33-548.99-64-834.99-75-225-8-456-32.002-494-52.002-17-9-44.004-24.991-59.004-35.991-16-11-58.003-32.007-93.003-47.007-36-15-69.996-31.998-75.996-37.998-19-19 101.01-25.003 396.01-18.003 393 9 608 22.006 821 51.006 99 14 243 32.001 320 41.001 154 17 493 81.994 595 113.99 36 11 91.999 23.012 124 27.012l58.989 5.9912-39.99-53.994c-95-127-146-282.01-165-504.01-17-211 15.002-428 82.002-537 36-60 40.995-59.999-175-3.999-174 45-413 84.007-918 152.01-142 19-547.99 50.995-826.99 64.995-298 15-1075 18.003-1115 3.0029-23-8-36.988-26.003-62.988-78.003-18-38-30.012-71-27.012-75 4-3 214-6.002 468-7.002 254 0 575-5.997 712-11.997 300-14 792-61.997 1040-102 99-16 218-34.005 265-40.005s141-23.006 210-36.006c158-32 474-73.989 555-73.989 87 0 138 28.988 192 107.99 52 77 82.999 157.01 93.999 246.01 5 38 11.004 71.004 14.004 74.004 2 3 20.005-8.997 40.005-26.997 20-17 45.993-31.011 57.993-31.011 21 0 56.998 19 82.998 45 18 17 25.004 184.01 14.004 306.01-12 134-31.999 208.01-63.999 246.01l-22.998 26.997-44.004-17.007c-24-9-45.999-13.994-48.999-8.9942-4 4-12.003 50.004-18.003 104-24 202-78.999 309.99-184 361.99-59 29-99.001 31.997-176 11.997-53-14-52.992-13.991-61.992 9.0088-49 130-110.01 530.99-110.01 732.99 0 62.25-1.6816 81.188-18.135 80.859zm321.14-1161.9c7-2 19.996-35.008 30.996-73.008 6.7437-26.525 10.838-52.53 13.447-90.088h-116.75c25.45 99.024 54.742 168.95 72.305 163.1zm-92.739-256.38h308.41v-0.4395l23.335-2.1826c25-2 34.001-9.0029 41.001-33.003 5-16 10.001-82.993 11.001-147.99 1-107-1.0029-120.01-18.003-133.01-6.9086-5.0244-16.701-8.5734-26.455-11.03h-352.47c-10.126 95.414-8.8373 204.79 7.9248 303.03 1.5492 8.6863 3.6062 16.11 5.2588 24.624zm1.0254-420.94h127.71c-7.4777-62.095-18.653-102.7-34.995-127.69-13-19-18-21.001-30-11.001-26.87 22.018-48.264 72.807-62.71 138.69z" fill="#000000" stroke-width="7.5"/>
  <path d="m8428 2272c-6-40-8-76-4-79 4-4 35-9 71-11 71-5 153 18 241 66 54 30 163 112 163 124 2 25-140 121-227 155-94.354 37.121-245.73 80.243-266.75 60.906-29.128-98.05 32.783-224.82 22.75-315.91z" fill="#000000" stroke-width="7.5"/>
  <path d="m1749 2560c-93-5-101-7-210-62-115-57-189-109-188-131 0-16 137-112 220-155 70-36 162-51 232-38 34 6 36 9 42 59 3 29 5 115 3 192l-3 140z" fill="#000000" stroke-width="7.5"/>
  <path d="m7480.4 5536.6c-3.9753-25.907-13.969-42.162-50.188-62.216-81.068-43.92-168.23-102.12-162.01-108.06 26.71-25.052 278.76-154.83 292.61-156.82 7.9188-1.1374-6.5023 525.9-1.9468 590.57-56.332 48.626-68-195.24-78.47-263.47z" fill="#000000" stroke-width="7.5"/>
 </g>
</svg>
